<?xml version="1.0" standalone="yes"?>
<svg xmlns="http://www.w3.org/2000/svg" width="512" height="512">
<path style="fill:#276795; stroke:none;" d="M147.667 15.3333L148.333 15.6667L147.667 15.3333z"/>
<path style="fill:#23a5fe; stroke:none;" d="M149 15L150 16L149 15z"/>
<path style="fill:#dbe8f8; stroke:none;" d="M150 15.4684C136.169 18.1285 131.861 37.2447 146.001 43.2971C153.397 46.4627 163.154 45 171 45L221 45C228.427 45 239.995 47.1809 246.895 44.2577C256.211 40.3111 256.276 18.0411 245.96 15.3179C236.218 12.7463 223.076 15 213 15C192.975 15 169.657 11.6877 150 15.4684z"/>
<path style="fill:#23a5fe; stroke:none;" d="M248 15C253.263 24.5975 256.671 35.7087 247 44C262.777 50.6201 290.439 32.3283 270.815 18.1335C264.47 13.544 255.375 15 248 15z"/>
<path style="fill:#276795; stroke:none;" d="M265.667 15.3333L266.333 15.6667L265.667 15.3333z"/>
<path style="fill:#23a5fe; stroke:none;" d="M145 16L146 17L145 16z"/>
<path style="fill:#276795; stroke:none;" d="M268 16L269 17L268 16M143 17L144 18L143 17M270 17L271 18L270 17z"/>
<path style="fill:#23a5fe; stroke:none;" d="M142 18L143 19L142 18z"/>
<path style="fill:#276795; stroke:none;" d="M271 18L272 19L271 18z"/>
<path style="fill:#23a5fe; stroke:none;" d="M140 20L141 21L140 20z"/>
<path style="fill:#276795; stroke:none;" d="M273 20L274 21L273 20z"/>
<path style="fill:#23a5fe; stroke:none;" d="M139 21L140 22L139 21z"/>
<path style="fill:#276795; stroke:none;" d="M274 21L275 22L274 21M138 22L139 23L138 22z"/>
<path style="fill:#23a5fe; stroke:none;" d="M138 23L139 24L138 23z"/>
<path style="fill:#276795; stroke:none;" d="M275 23L276 24L275 23M137.333 24.6667L137.667 25.3333L137.333 24.6667M276 25L277 26L276 25M136 28L136 32L137 32L136 28M276.333 33.6667L276.667 34.3333L276.333 33.6667M137.333 34.6667L137.667 35.3333L137.333 34.6667z"/>
<path style="fill:#23a5fe; stroke:none;" d="M138 36L139 37L138 36z"/>
<path style="fill:#276795; stroke:none;" d="M275 36L276 37L275 36M138 37L139 38L138 37M139 38L140 39L139 38M274 38L275 39L274 38z"/>
<path style="fill:#23a5fe; stroke:none;" d="M140 39L141 40L140 39z"/>
<path style="fill:#276795; stroke:none;" d="M273 39L274 40L273 39z"/>
<path style="fill:#23a5fe; stroke:none;" d="M141 40L142 41L141 40z"/>
<path style="fill:#276795; stroke:none;" d="M272 40L273 41L272 40z"/>
<path style="fill:#23a5fe; stroke:none;" d="M142 41L143 42L142 41z"/>
<path style="fill:#276795; stroke:none;" d="M271 41L272 42L271 41M143 42L144 43L143 42M270 42L271 43L270 42M145 43L146 44L145 43M268 43L269 44L268 43M148 44L149 45L148 44z"/>
<path style="fill:#23a5fe; stroke:none;" d="M149.667 44.3333L150.333 44.6667L149.667 44.3333z"/>
<path style="fill:#276795; stroke:none;" d="M264.667 44.3333L265.333 44.6667L264.667 44.3333M367.667 51.3333L368.333 51.6667L367.667 51.3333z"/>
<path style="fill:#23a5fe; stroke:none;" d="M369 51L369 52L438 52C444.642 52 458.284 49.4253 463.775 53.6034C472.619 60.3318 467.243 73.0944 464 81C470.338 81 476.92 81.7153 481.775 76.7863C489.214 69.235 486.302 55.2363 475.999 52.1088C465.436 48.9021 451.953 51 441 51L369 51z"/>
<path style="fill:#276795; stroke:none;" d="M473 51L473 52L476 52L473 51M364 52L365 53L364 52z"/>
<path style="fill:#23a5fe; stroke:none;" d="M365 52L366 53L365 52z"/>
<path style="fill:#dbe8f8; stroke:none;" d="M366.004 52.6528C353.34 56.6778 355.156 76.4639 367.001 80.196C373.927 82.3781 382.804 81 390 81L437 81C444.205 81 456.145 83.2984 462.786 80.3966C471.089 76.769 471.242 54.7972 461.956 52.3179C455.401 50.5679 446.769 52 440 52L395 52C386.189 52 374.441 49.9711 366.004 52.6528z"/>
<path style="fill:#276795; stroke:none;" d="M478 52L479 53L478 52z"/>
<path style="fill:#23a5fe; stroke:none;" d="M363 53L364 54L363 53z"/>
<path style="fill:#276795; stroke:none;" d="M479 53L480 54L479 53z"/>
<path style="fill:#23a5fe; stroke:none;" d="M359 57L360 58L359 57z"/>
<path style="fill:#276795; stroke:none;" d="M483 57L484 58L483 57M358 58L359 59L358 58M484 58L485 59L484 58z"/>
<path style="fill:#23a5fe; stroke:none;" d="M358 59L359 60L358 59z"/>
<path style="fill:#276795; stroke:none;" d="M163 60L163 85L164 85L163 60z"/>
<path style="fill:#dbe8f8; stroke:none;" d="M164 60L164 85C171.348 85 190.705 81.5199 194.816 89.1088C197.102 93.3266 194.021 97.6903 189.995 99.2577C182.806 102.057 171.659 100 164 100L164 125C171.348 125 190.705 121.52 194.816 129.109C197.102 133.327 194.021 137.69 189.995 139.258C182.806 142.057 171.659 140 164 140C164 145.059 161.266 159.52 164.067 163.397C168.345 169.317 185.508 162.586 191.891 166.179C197.93 169.579 195.719 177.029 189.995 179.258C182.556 182.154 170.93 180 163 180C162.976 216.903 140.411 255.485 114.826 280.891C109.922 285.761 103.757 282.767 99.3742 288.059C97.216 290.665 93.5077 294.454 93.2762 298C93.0365 301.674 95.9628 304.143 94.4637 308C91.5599 315.471 84.1507 320.547 81 328C112.083 320.874 141.972 314.282 174 320.261C183.501 322.034 193.264 325.179 202 329.32C206.44 331.425 211.97 336.838 217 336.853C221.272 336.865 226.283 333.104 230 331.247C238.089 327.205 246.424 323.551 255 320.667C279.696 312.362 300.874 312.814 326 318C307.283 285.15 275.971 260.157 260.873 225C249.667 198.908 250 172.802 250 145L250 60L164 60z"/>
<path style="fill:#276795; stroke:none;" d="M357 61L358 62L357 61M485 61L486 62L485 61z"/>
<path style="fill:#23a5fe; stroke:none;" d="M357 62L358 63L357 62M357 69L358 70L357 69z"/>
<path style="fill:#276795; stroke:none;" d="M357.333 70.6667L357.667 71.3333L357.333 70.6667M485.333 70.6667L485.667 71.3333L485.333 70.6667M358 73L359 74L358 73M484 73L485 74L484 73z"/>
<path style="fill:#23a5fe; stroke:none;" d="M359 74L360 75L359 74z"/>
<path style="fill:#276795; stroke:none;" d="M360 76L361 77L360 76M482 76L483 77L482 76M361 77L362 78L361 77M481 77L482 78L481 77M362 78L363 79L362 78M480 78L481 79L480 78M364 79L365 80L364 79M478 79L479 80L478 79M366 80L367 81L366 80z"/>
<path style="fill:#23a5fe; stroke:none;" d="M367 80L368 81L367 80z"/>
<path style="fill:#276795; stroke:none;" d="M476 80L477 81L476 80M191 85L192 86L191 85z"/>
<path style="fill:#23a5fe; stroke:none;" d="M193 86L194 87L193 86M194 87L195 88L194 87z"/>
<path style="fill:#276795; stroke:none;" d="M195 89L196 90L195 89M195 95L196 96L195 95M379 96L379 121L380 121L379 96z"/>
<path style="fill:#dbe8f8; stroke:none;" d="M380 96L380 121C387.621 121 398.83 118.911 405.995 121.603C410.053 123.128 413.076 127.721 410.816 131.891C406.705 139.48 387.348 136 380 136L380 161C387.621 161 398.83 158.911 405.995 161.603C410.053 163.128 413.076 167.721 410.816 171.891C406.705 179.48 387.348 176 380 176L380 201C387.659 201 398.806 198.943 405.995 201.742C410.021 203.31 413.102 207.673 410.816 211.891C406.705 219.48 387.349 216 380 216L380 245C391.698 241.713 403.429 241.218 415 245.436C423.322 248.47 430.119 253.786 439 255.384C447.283 256.875 454.978 254.834 463 253L463 213C463 205.884 463.026 199.259 471 197L471 177C461.347 173.688 463 164.461 463 156L463 96L380 96z"/>
<path style="fill:#276795; stroke:none;" d="M463 96L463 172L464 172L464 120L463 96M189.667 99.3333L190.333 99.6667L189.667 99.3333M163 100L163 125L164 125L163 100M406 121L407 122L406 121z"/>
<path style="fill:#23a5fe; stroke:none;" d="M407 121L408 122L407 121z"/>
<path style="fill:#276795; stroke:none;" d="M191 125L192 126L191 125M411 125L412 126L411 125z"/>
<path style="fill:#23a5fe; stroke:none;" d="M193 126L194 127L193 126M194 127L195 128L194 127z"/>
<path style="fill:#276795; stroke:none;" d="M195 129L196 130L195 129M411 131L412 132L411 131M410 133L411 134L410 133z"/>
<path style="fill:#23a5fe; stroke:none;" d="M409 134L410 135L409 134z"/>
<path style="fill:#276795; stroke:none;" d="M195 135L196 136L195 135M407 135L408 136L407 135M379 136L379 161L380 161L379 136M189.667 139.333L190.333 139.667L189.667 139.333M163 140L163 144L164 144L163 140z"/>
<path style="fill:#23a5fe; stroke:none;" d="M163 144L163 160L164 160L163 144z"/>
<path style="fill:#276795; stroke:none;" d="M406 161L407 162L406 161z"/>
<path style="fill:#23a5fe; stroke:none;" d="M407 161L408 162L407 161z"/>
<path style="fill:#276795; stroke:none;" d="M163 164L164 165L163 164M191 165L192 166L191 165M411 165L412 166L411 165z"/>
<path style="fill:#23a5fe; stroke:none;" d="M193 166L194 167L193 166M194 167L195 168L194 167z"/>
<path style="fill:#276795; stroke:none;" d="M195 169L196 170L195 169M411 171L412 172L411 171M410 173L411 174L410 173M464 173L465 174L464 173z"/>
<path style="fill:#23a5fe; stroke:none;" d="M409 174L410 175L409 174z"/>
<path style="fill:#276795; stroke:none;" d="M465 174L466 175L465 174M195 175L196 176L195 175M407 175L408 176L407 175M466 175L467 176L466 175M379 176L379 201L380 201L379 176M468 176L469 177L468 176M250 177L250 186L251 186L250 177M189.667 179.333L190.333 179.667L189.667 179.333M162 186L162 190L163 190L162 186M251 190L251 193L252 193L251 190z"/>
<path style="fill:#23a5fe; stroke:none;" d="M251 193L252 194L251 193z"/>
<path style="fill:#276795; stroke:none;" d="M161.333 194.667L161.667 195.333L161.333 194.667M252.333 197.667L252.667 198.333L252.333 197.667M467 197L468 198L467 197M160.333 199.667L160.667 200.333L160.333 199.667M464 200L465 201L464 200M253.333 201.667L253.667 202.333L253.333 201.667M406 201L407 202L406 201M463 202L463 252L464 252C464 237.951 468.409 214.89 463 202M159 204L160 205L159 204M254.333 205.667L254.667 206.333L254.333 205.667M411 205L412 206L411 205M158 208L159 209L158 208M255 209L256 210L255 209z"/>
<path style="fill:#23a5fe; stroke:none;" d="M255 210L256 211L255 210z"/>
<path style="fill:#276795; stroke:none;" d="M157 211L158 212L157 211M411 211L412 212L411 211M256.333 212.667L256.667 213.333L256.333 212.667M410 213L411 214L410 213M156 214L157 215L156 214z"/>
<path style="fill:#23a5fe; stroke:none;" d="M409 214L410 215L409 214M156 215L157 216L156 215z"/>
<path style="fill:#276795; stroke:none;" d="M257.333 215.667L257.667 216.333L257.333 215.667M407 215L408 216L407 215M379 216L379 245L380 245L379 216M155 217L156 218L155 217M258 218L259 219L258 218M154 220L155 221L154 220M259 221L260 222L259 221M153 223L154 224L153 223M260 223L261 224L260 223z"/>
<path style="fill:#23a5fe; stroke:none;" d="M260 224L261 225L260 224z"/>
<path style="fill:#276795; stroke:none;" d="M152 225L153 226L152 225M261 226L262 227L261 226M151 227L152 228L151 227M262 228L263 229L262 228M150 230L151 231L150 230M263 230L264 231L263 230z"/>
<path style="fill:#23a5fe; stroke:none;" d="M204 231L205 232L204 231z"/>
<path style="fill:#276795; stroke:none;" d="M205 231L205 232L209 232L205 231z"/>
<path style="fill:#23a5fe; stroke:none;" d="M209 231L210 232L209 231z"/>
<path style="fill:#276795; stroke:none;" d="M149 232L150 233L149 232M199.667 232.333L200.333 232.667L199.667 232.333z"/>
<path style="fill:#020202; stroke:none;" d="M201 232.518C167.224 239.735 178.571 292.45 212 285.331C246.715 277.938 235.669 225.11 201 232.518z"/>
<path style="fill:#276795; stroke:none;" d="M213.667 232.333L214.333 232.667L213.667 232.333M264 232L265 233L264 232M196.667 233.333L197.333 233.667L196.667 233.333M216 233L217 234L216 233M148 234L149 235L148 234M194 234L195 235L194 234z"/>
<path style="fill:#23a5fe; stroke:none;" d="M219 234L220 235L219 234z"/>
<path style="fill:#276795; stroke:none;" d="M265 234L266 235L265 234M147 236L148 237L147 236M191 236L192 237L191 236M222 236L223 237L222 236M266 236L267 237L266 236z"/>
<path style="fill:#23a5fe; stroke:none;" d="M146 238L147 239L146 238z"/>
<path style="fill:#276795; stroke:none;" d="M267 238L268 239L267 238z"/>
<path style="fill:#23a5fe; stroke:none;" d="M187 239L188 240L187 239z"/>
<path style="fill:#276795; stroke:none;" d="M268 240L269 241L268 240M144 241L145 242L144 241M228 242L229 243L228 242z"/>
<path style="fill:#23a5fe; stroke:none;" d="M392 242L393 243L392 242z"/>
<path style="fill:#276795; stroke:none;" d="M393 242L393 243L401 243L393 242z"/>
<path style="fill:#23a5fe; stroke:none;" d="M401 242L402 243L401 242z"/>
<path style="fill:#276795; stroke:none;" d="M143 243L144 244L143 243M184 243L185 244L184 243M229 243L230 244L229 243M270 243L271 244L270 243M385.667 243.333L386.333 243.667L385.667 243.333M406.667 243.333L407.333 243.667L406.667 243.333z"/>
<path style="fill:#23a5fe; stroke:none;" d="M408 243L409 244L408 243z"/>
<path style="fill:#276795; stroke:none;" d="M142 244L143 245L142 244M381.667 244.333L382.333 244.667L381.667 244.333M411.667 244.333L412.333 244.667L411.667 244.333M230 245L231 246L230 245z"/>
<path style="fill:#23a5fe; stroke:none;" d="M271 245L272 246L271 245z"/>
<path style="fill:#276795; stroke:none;" d="M415 245L416 246L415 245M141 246L142 247L141 246M182 246L183 247L182 246M205 246L205 247L209 247L205 246M272 246L273 247L272 246M417 246L418 247L417 246M140 247L141 248L140 247M202 247L203 248L202 247z"/>
<path style="fill:#dbe8f8; stroke:none;" d="M203.015 247.653C188.962 252.153 195.98 274.231 209.999 270.181C225.302 265.761 217.862 242.898 203.015 247.653z"/>
<path style="fill:#276795; stroke:none;" d="M211 247L212 248L211 247M231 247L232 248L231 247M420 247L421 248L420 247M200 248L201 249L200 248M213 248L214 249L213 248z"/>
<path style="fill:#23a5fe; stroke:none;" d="M422 248L423 249L422 248z"/>
<path style="fill:#276795; stroke:none;" d="M181 249L182 250L181 249z"/>
<path style="fill:#23a5fe; stroke:none;" d="M214 249L215 250L214 249z"/>
<path style="fill:#276795; stroke:none;" d="M232 249L233 250L232 249M274 249L275 250L274 249M138 250L139 251L138 250z"/>
<path style="fill:#23a5fe; stroke:none;" d="M215 250L216 251L215 250z"/>
<path style="fill:#276795; stroke:none;" d="M275 250L276 251L275 250M425 250L426 251L425 250M137 251L138 252L137 251z"/>
<path style="fill:#23a5fe; stroke:none;" d="M180 251L181 252L180 251M197 251L198 252L197 251M216 251L217 252L216 251M427 251L428 252L427 251z"/>
<path style="fill:#276795; stroke:none;" d="M180 252L181 253L180 252M196 252L197 253L196 252M217 252L218 253L217 252M233.333 252.667L233.667 253.333L233.333 252.667M277 253L278 254L277 253M431 253L432 254L431 253M460.667 253.333L461.333 253.667L460.667 253.333M135 254L136 255L135 254M195 254L196 255L195 254M218 254L219 255L218 254M278 254L279 255L278 254M434 254L435 255L434 254M457.667 254.333L458.333 254.667L457.667 254.333M134 255L135 256L134 255z"/>
<path style="fill:#23a5fe; stroke:none;" d="M218 255L219 256L218 255z"/>
<path style="fill:#276795; stroke:none;" d="M437 255L437 256L440 256L437 255z"/>
<path style="fill:#23a5fe; stroke:none;" d="M451 255L452 256L451 255z"/>
<path style="fill:#276795; stroke:none;" d="M452 255L452 256L455 256L452 255M194 257L194 260L195 260L194 257M280 257L281 258L280 257M132 258L133 259L132 258z"/>
<path style="fill:#23a5fe; stroke:none;" d="M179 258L180 259L179 258z"/>
<path style="fill:#276795; stroke:none;" d="M281 258L282 259L281 258z"/>
<path style="fill:#e84e63; stroke:none;" d="M463 269C451.477 270.488 441.448 271.99 430 268.56C417.964 264.954 394.249 248.431 381.603 260.843C378.731 263.662 380 270.346 380 274L380 311L380 426C380 442.777 376.568 463.308 386.363 478C403.697 504.001 443.377 502.618 458.482 475C465.824 461.577 463 443.737 463 429L463 364L463 269z"/>
<path style="fill:#276795; stroke:none;" d="M131 259L132 260L131 259z"/>
<path style="fill:#23a5fe; stroke:none;" d="M283 261L284 262L283 261z"/>
<path style="fill:#276795; stroke:none;" d="M129 262L130 263L129 262z"/>
<path style="fill:#23a5fe; stroke:none;" d="M195 262L196 263L195 262z"/>
<path style="fill:#276795; stroke:none;" d="M218.333 262.667L218.667 263.333L218.333 262.667M284 262L285 263L284 262M128 263L129 264L128 263M195 263L196 264L195 263M233.333 263.667L233.667 264.333L233.333 263.667M285 263L286 264L285 263M180.333 264.667L180.667 265.333L180.333 264.667z"/>
<path style="fill:#23a5fe; stroke:none;" d="M217 264L218 265L217 264z"/>
<path style="fill:#276795; stroke:none;" d="M196 265L197 266L196 265z"/>
<path style="fill:#23a5fe; stroke:none;" d="M286 265L287 266L286 265M126 266L127 267L126 266z"/>
<path style="fill:#276795; stroke:none;" d="M197 266L198 267L197 266M216 266L217 267L216 266M287 266L288 267L287 266M125 267L126 268L125 267z"/>
<path style="fill:#23a5fe; stroke:none;" d="M198 267L199 268L198 267z"/>
<path style="fill:#276795; stroke:none;" d="M215 267L216 268L215 267M232 267L233 268L232 267M288 267L289 268L288 267M181 268L182 269L181 268M199 268L200 269L199 268M214 268L215 269L214 268z"/>
<path style="fill:#23a5fe; stroke:none;" d="M232 268L233 269L232 268z"/>
<path style="fill:#276795; stroke:none;" d="M200 269L201 270L200 269z"/>
<path style="fill:#23a5fe; stroke:none;" d="M201 269L202 270L201 269M212 269L213 270L212 269z"/>
<path style="fill:#276795; stroke:none;" d="M182 270L183 271L182 270M202.667 270.333L203.333 270.667L202.667 270.333z"/>
<path style="fill:#23a5fe; stroke:none;" d="M204 270L205 271L204 270M209 270L210 271L209 270z"/>
<path style="fill:#276795; stroke:none;" d="M210 270L211 271L210 270M231 270L232 271L231 270M290 270L291 271L290 270M122 271L123 272L122 271M291 271L292 272L291 271M183 272L184 273L183 272M230 272L231 273L230 272z"/>
<path style="fill:#23a5fe; stroke:none;" d="M184 274L185 275L184 274z"/>
<path style="fill:#276795; stroke:none;" d="M293 274L294 275L293 274M119 275L120 276L119 275M185 275L186 276L185 275M228 275L229 276L228 275M294 275L295 276L294 275M118 276L119 277L118 276M186 276L187 277L186 276M227 276L228 277L227 276M226 277L227 278L226 277M225 278L226 279L225 278M296 278L297 279L296 278M116 279L117 280L116 279M189 279L190 280L189 279M224 279L225 280L224 279M297 279L298 280L297 279M115 280L116 281L115 280M190 280L191 281L190 280M223 280L224 281L223 280M193 282L194 283L193 282M220 282L221 283L220 282M299 282L300 283L299 282z"/>
<path style="fill:#e84e63; stroke:none;" d="M103 283L104 284L103 283z"/>
<path style="fill:#276795; stroke:none;" d="M104 283L105 284L104 283M195 283L196 284L195 283M218 283L219 284L218 283M300 283L301 284L300 283M106 284L107 285L106 284M110 284L111 285L110 284z"/>
<path style="fill:#23a5fe; stroke:none;" d="M197 284L198 285L197 284z"/>
<path style="fill:#276795; stroke:none;" d="M198 284L199 285L198 284M215 284L216 285L215 284M201.667 285.333L202.333 285.667L201.667 285.333M211.667 285.333L212.333 285.667L211.667 285.333M302 286L303 287L302 286M303 287L304 288L303 287z"/>
<path style="fill:#23a5fe; stroke:none;" d="M305 290L306 291L305 290z"/>
<path style="fill:#276795; stroke:none;" d="M306 291L307 292L306 291M307 292L308 293L307 292M309 295L310 296L309 295M310 296L311 297L310 296M92 299L93 300L92 299M312 299L313 300L312 299M313 300L314 301L313 300M94 301L95 302L94 301M315 303L316 304L315 303M95.3333 304.667L95.6667 305.333L95.3333 304.667M316 304L317 305L316 304z"/>
<path style="fill:#020202; stroke:none;" d="M415 304.529C383.846 311.719 396.097 360.411 427 353.319C459.495 345.862 447.189 297.101 415 304.529z"/>
<path style="fill:#23a5fe; stroke:none;" d="M95 306L96 307L95 306z"/>
<path style="fill:#276795; stroke:none;" d="M318 307L319 308L318 307M94 308L95 309L94 308M319 308L320 309L319 308M93 310L94 311L93 310M92 311L93 312L92 311M321 311L322 312L321 311M322 312L323 313L322 312z"/>
<path style="fill:#23a5fe; stroke:none;" d="M289 313L290 314L289 313z"/>
<path style="fill:#276795; stroke:none;" d="M290 313L290 314L300 314L290 313z"/>
<path style="fill:#23a5fe; stroke:none;" d="M300.667 313.333L301.333 313.667L300.667 313.333M90 314L91 315L90 314z"/>
<path style="fill:#276795; stroke:none;" d="M279 314L279 315L282 315L279 314M307 314L307 315L310 315L307 314z"/>
<path style="fill:#23a5fe; stroke:none;" d="M310 314L311 315L310 314z"/>
<path style="fill:#276795; stroke:none;" d="M89 315L90 316L89 315M273 315L273 316L276 316L273 315M314.667 315.333L315.333 315.667L314.667 315.333z"/>
<path style="fill:#23a5fe; stroke:none;" d="M324 315L325 316L324 315z"/>
<path style="fill:#276795; stroke:none;" d="M269.667 316.333L270.333 316.667L269.667 316.333M318.667 316.333L319.333 316.667L318.667 316.333M325 316L326 317L325 316M265 317L266 318L265 317M322.667 317.333L323.333 317.667L322.667 317.333M128 318L128 319L133 319L128 318M157 318L157 319L161 319L157 318z"/>
<path style="fill:#23a5fe; stroke:none;" d="M161 318L162 319L161 318z"/>
<path style="fill:#276795; stroke:none;" d="M261.667 318.333L262.333 318.667L261.667 318.333M326 318L327 319L326 318M420 318L420 319L423 319L420 318M86 319L87 320L86 319M119 319L119 320L122 320L119 319M167 319L167 320L170 320L167 319M258 319L259 320L258 319M417 319L418 320L417 319z"/>
<path style="fill:#dbe8f8; stroke:none;" d="M418.015 319.743C406.663 324.158 413.276 342.072 424.96 337.812C436.39 333.646 429.63 315.226 418.015 319.743z"/>
<path style="fill:#276795; stroke:none;" d="M425 319L426 320L425 319M85 320L86 321L85 320z"/>
<path style="fill:#23a5fe; stroke:none;" d="M112 320L113 321L112 320z"/>
<path style="fill:#276795; stroke:none;" d="M113.667 320.333L114.333 320.667L113.667 320.333M173.667 320.333L174.333 320.667L173.667 320.333z"/>
<path style="fill:#23a5fe; stroke:none;" d="M175 320L176 321L175 320z"/>
<path style="fill:#276795; stroke:none;" d="M255 320L256 321L255 320M415 320L416 321L415 320M427 320L428 321L427 320M107.667 321.333L108.333 321.667L107.667 321.333M178.667 321.333L179.333 321.667L178.667 321.333M252 321L253 322L252 321M414 321L415 322L414 321M428 321L429 322L428 321M102.667 322.333L103.333 322.667L102.667 322.333M182.667 322.333L183.333 322.667L182.667 322.333z"/>
<path style="fill:#23a5fe; stroke:none;" d="M249 322L250 323L249 322z"/>
<path style="fill:#276795; stroke:none;" d="M250 322L251 323L250 322M413 322L414 323L413 322M429 322L430 323L429 322M83 323L84 324L83 323M98.6667 323.333L99.3333 323.667L98.6667 323.333M186 323L187 324L186 323M247 323L248 324L247 323M82 324L83 325L82 324M94 324L95 325L94 324M189 324L190 325L189 324M244 324L245 325L244 324M412 324L413 325L412 324z"/>
<path style="fill:#23a5fe; stroke:none;" d="M430 324L431 325L430 324z"/>
<path style="fill:#276795; stroke:none;" d="M90.6667 325.333L91.3333 325.667L90.6667 325.333M192 325L193 326L192 325M242 325L243 326L242 325z"/>
<path style="fill:#23a5fe; stroke:none;" d="M86 326L87 327L86 326z"/>
<path style="fill:#276795; stroke:none;" d="M87 326L88 327L87 326M195 326L196 327L195 326M240 326L241 327L240 326M411 326L411 332L412 332L411 326M431 326L431 332L432 332L431 326z"/>
<path style="fill:#23a5fe; stroke:none;" d="M80 327L81 328L80 327z"/>
<path style="fill:#276795; stroke:none;" d="M83.6667 327.333L84.3333 327.667L83.6667 327.333M197 327L198 328L197 327M237 327L238 328L237 327M79.6667 328.333L80.3333 328.667L79.6667 328.333M200 328L201 329L200 328M235 328L236 329L235 328M288 328L288 329L301 329L288 328M202 329L203 330L202 329M233 329L234 330L233 329M280 329L280 330L283 330L280 329z"/>
<path style="fill:#23a5fe; stroke:none;" d="M283 329.428C253.172 333.699 227.192 349.399 201 363.219C171.659 378.701 141.889 392.816 110 402.279C92.5562 407.456 74.1221 411.24 56 412.925C49.4666 413.533 34.8568 411.901 29.5995 416.027C26.5487 418.422 27.0509 425.514 26.5764 429C24.741 442.483 26.4059 457.483 31.8758 470C45.4079 500.967 81.1197 497 109 497L267 497C294.057 497 324.468 500.814 351 494.985C356.725 493.727 368.618 490.31 370.582 483.91C371.98 479.352 366.382 470.803 365.461 466C363.073 453.555 364 440.611 364 428L364 387C364 381.152 365.249 373.608 363.436 368C353.445 337.096 311.823 325.301 283 329.428z"/>
<path style="fill:#276795; stroke:none;" d="M306 329L306 330L309 330L306 329M204 330L205 331L204 330M231 330L232 331L231 330M274 330L274 331L277 331L274 330M312.667 330.333L313.333 330.667L312.667 330.333M206 331L207 332L206 331M229 331L230 332L229 331M270.667 331.333L271.333 331.667L270.667 331.333M316.667 331.333L317.333 331.667L316.667 331.333M396 331L397 332L396 331M227 332L228 333L227 332M267 332L268 333L267 332M320 332L321 333L320 332M127 333L127 334L132 334L127 333z"/>
<path style="fill:#23a5fe; stroke:none;" d="M132.667 333.333L133.333 333.667L132.667 333.333z"/>
<path style="fill:#dbe8f8; stroke:none;" d="M33 399C76.5459 398.88 119.808 385.302 159 367.309C171.37 361.63 191.076 355.41 200 345C165.649 330.717 129.771 330.023 94 340.291C83.2631 343.373 70.0748 346.552 61.1705 353.637C47.7094 364.349 39.0537 383.392 33 399z"/>
<path style="fill:#23a5fe; stroke:none;" d="M156.667 333.333L157.333 333.667L156.667 333.333z"/>
<path style="fill:#276795; stroke:none;" d="M158 333L158 334L162 334L158 333M209 333L210 334L209 333M225 333L226 334L225 333M263.667 333.333L264.333 333.667L263.667 333.333M323.667 333.333L324.333 333.667L323.667 333.333M412 333L413 334L412 333M430 333L431 334L430 333M119 334L119 335L122 335L119 334z"/>
<path style="fill:#23a5fe; stroke:none;" d="M122.667 334.333L123.333 334.667L122.667 334.333M165.667 334.333L166.333 334.667L165.667 334.333z"/>
<path style="fill:#276795; stroke:none;" d="M167.667 334.333L168.333 334.667L167.667 334.333M211 334L212 335L211 334M223 334L224 335L223 334M260.667 334.333L261.333 334.667L260.667 334.333M326 334L327 335L326 334z"/>
<path style="fill:#23a5fe; stroke:none;" d="M413 334L414 335L413 334M429 334L430 335L429 334z"/>
<path style="fill:#276795; stroke:none;" d="M113.667 335.333L114.333 335.667L113.667 335.333z"/>
<path style="fill:#23a5fe; stroke:none;" d="M115 335L116 336L115 335M171 335L172 336L171 335z"/>
<path style="fill:#276795; stroke:none;" d="M172.667 335.333L173.333 335.667L172.667 335.333M221 335L222 336L221 335M257.667 335.333L258.333 335.667L257.667 335.333M329 335L330 336L329 335M107 336L107 337L110 337L107 336z"/>
<path style="fill:#23a5fe; stroke:none;" d="M110 336L111 337L110 336M176 336L177 337L176 336z"/>
<path style="fill:#276795; stroke:none;" d="M177.667 336.333L178.333 336.667L177.667 336.333M214 336L215 337L214 336M219 336L220 337L219 336M255 336L256 337L255 336M331 336L332 337L331 336M103.667 337.333L104.333 337.667L103.667 337.333z"/>
<path style="fill:#23a5fe; stroke:none;" d="M105 337L106 338L105 337M180 337L181 338L180 337z"/>
<path style="fill:#276795; stroke:none;" d="M181 337L182 338L181 337M217 337L218 338L217 337M252 337L253 338L252 337M333.667 337.333L334.333 337.667L333.667 337.333M416 337L417 338L416 337M426 337L427 338L426 337M99 338L100 339L99 338z"/>
<path style="fill:#23a5fe; stroke:none;" d="M100 338L101 339L100 338M183 338L184 339L183 338z"/>
<path style="fill:#276795; stroke:none;" d="M184 338L185 339L184 338M250 338L251 339L250 338M336 338L337 339L336 338M418 338L419 339L418 338z"/>
<path style="fill:#23a5fe; stroke:none;" d="M419.667 338.333L420.333 338.667L419.667 338.333M423 338L424 339L423 338z"/>
<path style="fill:#276795; stroke:none;" d="M424 338L425 339L424 338M95 339L96 340L95 339z"/>
<path style="fill:#23a5fe; stroke:none;" d="M96 339L97 340L96 339M186 339L187 340L186 339z"/>
<path style="fill:#276795; stroke:none;" d="M187 339L188 340L187 339M247 339L248 340L247 339M338 339L339 340L338 339M91.6667 340.333L92.3333 340.667L91.6667 340.333z"/>
<path style="fill:#23a5fe; stroke:none;" d="M93 340L94 341L93 340M189 340L190 341L189 340z"/>
<path style="fill:#276795; stroke:none;" d="M190 340L191 341L190 340M245 340L246 341L245 340M340 340L341 341L340 340M88 341L89 342L88 341z"/>
<path style="fill:#23a5fe; stroke:none;" d="M89 341L90 342L89 341z"/>
<path style="fill:#276795; stroke:none;" d="M192 341L193 342L192 341M243 341L244 342L243 341M342 341L343 342L342 341M85 342L86 343L85 342z"/>
<path style="fill:#23a5fe; stroke:none;" d="M86 342L87 343L86 342z"/>
<path style="fill:#276795; stroke:none;" d="M194 342L195 343L194 342M241 342L242 343L241 342M344 342L345 343L344 342M82 343L83 344L82 343z"/>
<path style="fill:#23a5fe; stroke:none;" d="M83 343L84 344L83 343M196 343L197 344L196 343z"/>
<path style="fill:#276795; stroke:none;" d="M238 343L239 344L238 343M345 343L346 344L345 343M79 344L80 345L79 344z"/>
<path style="fill:#23a5fe; stroke:none;" d="M80 344L81 345L80 344M198 344L199 345L198 344z"/>
<path style="fill:#276795; stroke:none;" d="M236 344L237 345L236 344M346 344L347 345L346 344M77 345L78 346L77 345M200.333 345.667L200.667 346.333L200.333 345.667M234 345L235 346L234 345M347 345L348 346L347 345M74 346L75 347L74 346z"/>
<path style="fill:#23a5fe; stroke:none;" d="M75 346L76 347L75 346M199 346L200 347L199 346z"/>
<path style="fill:#276795; stroke:none;" d="M232 346L233 347L232 346M72 347L73 348L72 347M198 347L199 348L198 347M230 347L231 348L230 347M70 348L71 349L70 348M196 348L197 349L196 348M228 348L229 349L228 348M349 348L350 349L349 348M67 349L68 350L67 349z"/>
<path style="fill:#23a5fe; stroke:none;" d="M68 349L69 350L68 349z"/>
<path style="fill:#276795; stroke:none;" d="M194 349L195 350L194 349M226 349L227 350L226 349M350 349L351 350L350 349M65 350L66 351L65 350z"/>
<path style="fill:#23a5fe; stroke:none;" d="M66 350L67 351L66 350z"/>
<path style="fill:#276795; stroke:none;" d="M192 350L193 351L192 350M224 350L225 351L224 350z"/>
<path style="fill:#23a5fe; stroke:none;" d="M64 351L65 352L64 351z"/>
<path style="fill:#276795; stroke:none;" d="M190 351L191 352L190 351M222 351L223 352L222 351M62 352L63 353L62 352z"/>
<path style="fill:#23a5fe; stroke:none;" d="M188 352L189 353L188 352z"/>
<path style="fill:#276795; stroke:none;" d="M221 352L222 353L221 352M352 352L353 353L352 352M60 353L61 354L60 353z"/>
<path style="fill:#23a5fe; stroke:none;" d="M186 353L187 354L186 353z"/>
<path style="fill:#276795; stroke:none;" d="M219 353L220 354L219 353M353 353L354 354L353 353M59 354L60 355L59 354z"/>
<path style="fill:#23a5fe; stroke:none;" d="M184 354L185 355L184 354z"/>
<path style="fill:#276795; stroke:none;" d="M185 354L186 355L185 354M217 354L218 355L217 354z"/>
<path style="fill:#23a5fe; stroke:none;" d="M182 355L183 356L182 355z"/>
<path style="fill:#276795; stroke:none;" d="M183 355L184 356L183 355M215 355L216 356L215 355z"/>
<path style="fill:#23a5fe; stroke:none;" d="M58 356L59 357L58 356z"/>
<path style="fill:#276795; stroke:none;" d="M181 356L182 357L181 356M213 356L214 357L213 356M355 356L356 357L355 356M57 357L58 358L57 357M179 357L180 358L179 357M211 357L212 358L211 357M356 357L357 358L356 357M56 358L57 359L56 358M177 358L178 359L177 358M209 358L210 359L209 358M357 358L358 359L357 358M175 359L176 360L175 359M207 359L208 360L207 359M173 360L174 361L173 360M205 360L206 361L205 360M358 360L359 361L358 360z"/>
<path style="fill:#23a5fe; stroke:none;" d="M54 361L55 362L54 361z"/>
<path style="fill:#276795; stroke:none;" d="M171 361L172 362L171 361M204 361L205 362L204 361M359 361L360 362L359 361M53 362L54 363L53 362M169 362L170 363L169 362M202 362L203 363L202 362M360 362L361 363L360 362M52 363L53 364L52 363M167 363L168 364L167 363M200 363L201 364L200 363M165 364L166 365L165 364M198 364L199 365L198 364M361 364L362 365L361 364z"/>
<path style="fill:#23a5fe; stroke:none;" d="M51 365L52 366L51 365z"/>
<path style="fill:#276795; stroke:none;" d="M163 365L164 366L163 365M196 365L197 366L196 365M362 365L363 366L362 365M50 366L51 367L50 366z"/>
<path style="fill:#23a5fe; stroke:none;" d="M160 366L161 367L160 366z"/>
<path style="fill:#276795; stroke:none;" d="M161 366L162 367L161 366M194 366L195 367L194 366M363 366L364 367L363 366M49 367L50 368L49 367z"/>
<path style="fill:#23a5fe; stroke:none;" d="M158 367L159 368L158 367z"/>
<path style="fill:#276795; stroke:none;" d="M159 367L160 368L159 367M192 367L193 368L192 367z"/>
<path style="fill:#23a5fe; stroke:none;" d="M156 368L157 369L156 368z"/>
<path style="fill:#276795; stroke:none;" d="M157 368L158 369L157 368M190 368L191 369L190 368M364 368L364 460L365 460L365 396L364 368z"/>
<path style="fill:#23a5fe; stroke:none;" d="M48 369L49 370L48 369z"/>
<path style="fill:#276795; stroke:none;" d="M154 369L155 370L154 369M188 369L189 370L188 369M47 370L48 371L47 370M152 370L153 371L152 370M46 371L47 372L46 371M150 371L151 372L150 371M185 371L186 372L185 371z"/>
<path style="fill:#23a5fe; stroke:none;" d="M147 372L148 373L147 372z"/>
<path style="fill:#276795; stroke:none;" d="M148 372L149 373L148 372M183 372L184 373L183 372z"/>
<path style="fill:#23a5fe; stroke:none;" d="M45 373L46 374L45 373z"/>
<path style="fill:#276795; stroke:none;" d="M145 373L146 374L145 373M181 373L182 374L181 373M44 374L45 375L44 374z"/>
<path style="fill:#23a5fe; stroke:none;" d="M142 374L143 375L142 374z"/>
<path style="fill:#276795; stroke:none;" d="M143 374L144 375L143 374M179 374L180 375L179 374z"/>
<path style="fill:#23a5fe; stroke:none;" d="M140 375L141 376L140 375z"/>
<path style="fill:#276795; stroke:none;" d="M141 375L142 376L141 375M177 375L178 376L177 375M43 376L44 377L43 376M138 376L139 377L138 376M175 376L176 377L175 376z"/>
<path style="fill:#23a5fe; stroke:none;" d="M135 377L136 378L135 377z"/>
<path style="fill:#276795; stroke:none;" d="M136 377L137 378L136 377M173 377L174 378L173 377z"/>
<path style="fill:#23a5fe; stroke:none;" d="M42 378L43 379L42 378M132 378L133 379L132 378z"/>
<path style="fill:#276795; stroke:none;" d="M133 378L134 379L133 378M170.667 378.333L171.333 378.667L170.667 378.333M41 379L42 380L41 379M130 379L131 380L130 379M168 379L169 380L168 379z"/>
<path style="fill:#23a5fe; stroke:none;" d="M127 380L128 381L127 380z"/>
<path style="fill:#276795; stroke:none;" d="M128 380L129 381L128 380M166 380L167 381L166 380M40 381L41 382L40 381z"/>
<path style="fill:#23a5fe; stroke:none;" d="M124 381L125 382L124 381z"/>
<path style="fill:#276795; stroke:none;" d="M125 381L126 382L125 381M164 381L165 382L164 381M227 381L228 382L227 381z"/>
<path style="fill:#020202; stroke:none;" d="M228.019 381.785C219.694 384.612 223.433 397.586 231.956 395.303C240.554 393 236.794 378.806 228.019 381.785z"/>
<path style="fill:#276795; stroke:none;" d="M232.667 381.333L233.333 381.667L232.667 381.333z"/>
<path style="fill:#23a5fe; stroke:none;" d="M121 382L122 383L121 382z"/>
<path style="fill:#276795; stroke:none;" d="M122 382L123 383L122 382M162 382L163 383L162 382M225 382L226 383L225 382M234 382L235 383L234 382M39 383L40 384L39 383M119 383L120 384L119 383M160 383L161 384L160 383M224 383L225 384L224 383z"/>
<path style="fill:#23a5fe; stroke:none;" d="M115 384L116 385L115 384z"/>
<path style="fill:#276795; stroke:none;" d="M116 384L117 385L116 384M157.667 384.333L158.333 384.667L157.667 384.333M223 384L224 385L223 384M236 384L237 385L236 384M38 385L39 386L38 385z"/>
<path style="fill:#23a5fe; stroke:none;" d="M112 385L113 386L112 385z"/>
<path style="fill:#276795; stroke:none;" d="M113 385L114 386L113 385M155 385L156 386L155 385z"/>
<path style="fill:#020202; stroke:none;" d="M407.108 385.863C398.679 389.525 404.211 402.959 412.891 399.138C420.975 395.579 415.69 382.134 407.108 385.863z"/>
<path style="fill:#23a5fe; stroke:none;" d="M109 386L110 387L109 386z"/>
<path style="fill:#276795; stroke:none;" d="M110 386L111 387L110 386M153 386L154 387L153 386M237 386L237 391L238 391L237 386M37 387L38 388L37 387M106.667 387.333L107.333 387.667L106.667 387.333M151 387L152 388L151 387M222 387L222 390L223 390L222 387z"/>
<path style="fill:#23a5fe; stroke:none;" d="M102 388L103 389L102 388z"/>
<path style="fill:#276795; stroke:none;" d="M103 388L104 389L103 388M148 388L149 389L148 388M36 389L37 390L36 389z"/>
<path style="fill:#23a5fe; stroke:none;" d="M98 389L99 390L98 389z"/>
<path style="fill:#276795; stroke:none;" d="M99.6667 389.333L100.333 389.667L99.6667 389.333M146 389L147 390L146 389z"/>
<path style="fill:#23a5fe; stroke:none;" d="M36 390L37 391L36 390M94 390L95 391L94 390z"/>
<path style="fill:#276795; stroke:none;" d="M95.6667 390.333L96.3333 390.667L95.6667 390.333M143 390L144 391L143 390M35.3333 391.667L35.6667 392.333L35.3333 391.667z"/>
<path style="fill:#23a5fe; stroke:none;" d="M90 391L91 392L90 391z"/>
<path style="fill:#276795; stroke:none;" d="M91 391L92 392L91 391M141 391L142 392L141 391M86.6667 392.333L87.3333 392.667L86.6667 392.333M138 392L139 393L138 392M223 392L224 393L223 392M236 392L237 393L236 392z"/>
<path style="fill:#23a5fe; stroke:none;" d="M80 393L81 394L80 393z"/>
<path style="fill:#276795; stroke:none;" d="M81 393L81 394L84 394L81 393M135.667 393.333L136.333 393.667L135.667 393.333M224 393L225 394L224 393M278 393L278 394L283 394L278 393z"/>
<path style="fill:#020202; stroke:none;" d="M283 393.465C269.042 394.753 256.488 401.833 250.518 415C239.239 439.872 258.456 471.545 287 468.829C301.062 467.49 314.055 459.386 319.525 446C329.521 421.537 310.637 390.913 283 393.465z"/>
<path style="fill:#276795; stroke:none;" d="M287 393L287 394L291 394L287 393M34 394L35 395L34 394z"/>
<path style="fill:#23a5fe; stroke:none;" d="M75 394L76 395L75 394z"/>
<path style="fill:#276795; stroke:none;" d="M76.6667 394.333L77.3333 394.667L76.6667 394.333M133 394L134 395L133 394M225 394L226 395L225 394M234 394L235 395L234 394M274.667 394.333L275.333 394.667L274.667 394.333M294.667 394.333L295.333 394.667L294.667 394.333z"/>
<path style="fill:#23a5fe; stroke:none;" d="M34 395L35 396L34 395M69 395L70 396L69 395z"/>
<path style="fill:#276795; stroke:none;" d="M70 395L70 396L73 396L70 395M130 395L131 396L130 395M227 395L228 396L227 395M232 395L233 396L232 395M271 395L272 396L271 395M297 395L298 396L297 395z"/>
<path style="fill:#23a5fe; stroke:none;" d="M62 396L63 397L62 396z"/>
<path style="fill:#276795; stroke:none;" d="M63 396L63 397L66 397L63 396M127.667 396.333L128.333 396.667L127.667 396.333M269 396L270 397L269 396M300 396L301 397L300 396M33 397L34 398L33 397z"/>
<path style="fill:#23a5fe; stroke:none;" d="M53.6667 397.333L54.3333 397.667L53.6667 397.333z"/>
<path style="fill:#276795; stroke:none;" d="M55 397L55 398L59 398L55 397M124.667 397.333L125.333 397.667L124.667 397.333M267 397L268 398L267 397M302 397L303 398L302 397z"/>
<path style="fill:#23a5fe; stroke:none;" d="M41 398L41 399L44 399L41 398z"/>
<path style="fill:#276795; stroke:none;" d="M44 398L44 399L49 399L44 398M121.667 398.333L122.333 398.667L121.667 398.333M265 398L266 399L265 398M33.6667 399.333L34.3333 399.667L33.6667 399.333M118.667 399.333L119.333 399.667L118.667 399.333M263 399L264 400L263 399M305 399L306 400L305 399M115 400L116 401L115 400M262 400L263 401L262 400M111.667 401.333L112.333 401.667L111.667 401.333M308 401L309 402L308 401M108.667 402.333L109.333 402.667L108.667 402.333M309 402L310 403L309 402M104.667 403.333L105.333 403.667L104.667 403.333M258 403L259 404L258 403M310 403L311 404L310 403M100.667 404.333L101.333 404.667L100.667 404.333M257 404L258 405L257 404M311 404L312 405L311 404M96.6667 405.333L97.3333 405.667L96.6667 405.333M166 405L167 406L166 405z"/>
<path style="fill:#020202; stroke:none;" d="M167.019 405.786C158.662 408.578 162.258 422.176 170.981 419.215C179.314 416.385 175.432 402.976 167.019 405.786z"/>
<path style="fill:#276795; stroke:none;" d="M171 405L172 406L171 405M312 405L313 406L312 405M92.6667 406.333L93.3333 406.667L92.6667 406.333M164 406L165 407L164 406M173 406L174 407L173 406M313 406L314 407L313 406M87 407L87 408L90 408L87 407M163 407L164 408L163 407M174 407L175 408L174 407M314 407L315 408L314 407M82 408L82 409L85 409L82 408M162 408L163 409L162 408M175 408L176 409L175 408M254 408L255 409L254 408M280 408L280 409L283 409L280 408z"/>
<path style="fill:#23a5fe; stroke:none;" d="M283 408L283 409L287 409L283 408z"/>
<path style="fill:#276795; stroke:none;" d="M287 408L287 409L290 409L287 408M77.6667 409.333L78.3333 409.667L77.6667 409.333M253 409L254 410L253 409M277 409L278 410L277 409z"/>
<path style="fill:#dbe8f8; stroke:none;" d="M278 409.638C250.218 417.658 263.298 460.587 291 452.699C319.248 444.656 306.233 401.488 278 409.638z"/>
<path style="fill:#23a5fe; stroke:none;" d="M291 409L292 410L291 409z"/>
<path style="fill:#276795; stroke:none;" d="M292 409L293 410L292 409M71 410L71 411L74 411L71 410M161 410L161 415L162 415L161 410M274 410L275 411L274 410z"/>
<path style="fill:#23a5fe; stroke:none;" d="M275 410L276 411L275 410z"/>
<path style="fill:#276795; stroke:none;" d="M294 410L295 411L294 410M316 410L317 411L316 410M64 411L64 412L68 412L64 411M176 411L176 414L177 414L176 411M252 411L253 412L252 411z"/>
<path style="fill:#23a5fe; stroke:none;" d="M273 411L274 412L273 411z"/>
<path style="fill:#276795; stroke:none;" d="M296 411L297 412L296 411M56 412L56 413L60 413L56 412M251 412L252 413L251 412M271 412L272 413L271 412z"/>
<path style="fill:#23a5fe; stroke:none;" d="M297 412L298 413L297 412z"/>
<path style="fill:#276795; stroke:none;" d="M317 412L318 413L317 412M45 413L45 414L51 414L45 413z"/>
<path style="fill:#23a5fe; stroke:none;" d="M270 413L271 414L270 413z"/>
<path style="fill:#276795; stroke:none;" d="M299 413L300 414L299 413M318 413L319 414L318 413M29 414L29 415L37 415L29 414M250 414L251 415L250 414z"/>
<path style="fill:#23a5fe; stroke:none;" d="M269 414L270 415L269 414z"/>
<path style="fill:#276795; stroke:none;" d="M300 414L301 415L300 414M28 415L29 416L28 415M301 415L302 416L301 415M319.333 415.667L319.667 416.333L319.333 415.667M162 416L163 417L162 416M175 416L176 417L175 416M249.333 416.667L249.667 417.333L249.333 416.667z"/>
<path style="fill:#23a5fe; stroke:none;" d="M267 416L268 417L267 416z"/>
<path style="fill:#276795; stroke:none;" d="M302 416L303 417L302 416M174 417L175 418L174 417M266 417L267 418L266 417M164 418L165 419L164 418M173 418L174 419L173 418M265 418L266 419L265 418z"/>
<path style="fill:#23a5fe; stroke:none;" d="M303 418L304 419L303 418z"/>
<path style="fill:#276795; stroke:none;" d="M320 418L321 419L320 418M27 419L27 422L28 422L27 419M165.667 419.333L166.333 419.667L165.667 419.333M171 419L172 420L171 419M248.333 419.667L248.667 420.333L248.333 419.667M304 419L305 420L304 419M264 420L265 421L264 420M305 421L306 422L305 421M321.333 421.667L321.667 422.333L321.333 421.667M108 422L108 423L111 423L108 422z"/>
<path style="fill:#020202; stroke:none;" d="M111 422.443C77.471 427.322 83.5839 478.581 117 473.699C149.374 468.97 143.211 417.756 111 422.443z"/>
<path style="fill:#276795; stroke:none;" d="M117.667 422.333L118.333 422.667L117.667 422.333M263 422L264 423L263 422M104.667 423.333L105.333 423.667L104.667 423.333M121.667 423.333L122.333 423.667L121.667 423.333M247.333 423.667L247.667 424.333L247.333 423.667z"/>
<path style="fill:#23a5fe; stroke:none;" d="M263 423L264 424L263 423z"/>
<path style="fill:#276795; stroke:none;" d="M306.333 423.667L306.667 424.333L306.333 423.667M102 424L103 425L102 424M124 424L125 425L124 424M100 425L101 426L100 425M126 425L127 426L126 425M262 425L263 426L262 425M26 426L26 430L27 430L26 426z"/>
<path style="fill:#23a5fe; stroke:none;" d="M262.333 426.667L262.667 427.333L262.333 426.667z"/>
<path style="fill:#276795; stroke:none;" d="M322 426L322 436L323 436L322 426M97 427L98 428L97 427M129 427L130 428L129 427M307 427L307 435L308 435L307 427M96 428L97 429L96 428M130 428L131 429L130 428M95 429L96 430L95 429M131 429L132 430L131 429M94 430L95 431L94 430M132 430L133 431L132 430M93 431L94 432L93 431M133 431L134 432L133 431M92 432L93 433L92 432M134 432L135 433L134 432M91 434L92 435L91 434M135 434L136 435L135 434M136 435L137 436L136 435z"/>
<path style="fill:#23a5fe; stroke:none;" d="M262 435L263 436L262 435z"/>
<path style="fill:#276795; stroke:none;" d="M262 436L263 437L262 436M110.667 437.333L111.333 437.667L110.667 437.333z"/>
<path style="fill:#23a5fe; stroke:none;" d="M112 437L112 438L115 438L112 437z"/>
<path style="fill:#276795; stroke:none;" d="M115.667 437.333L116.333 437.667L115.667 437.333M137.333 437.667L137.667 438.333L137.333 437.667M247.333 437.667L247.667 438.333L247.333 437.667M306.333 437.667L306.667 438.333L306.333 437.667M89 438L90 439L89 438M108 438L109 439L108 438z"/>
<path style="fill:#dbe8f8; stroke:none;" d="M109.043 438.742C97.2777 443.507 105.064 462.258 116.996 457.837C130.228 452.935 122.12 433.446 109.043 438.742z"/>
<path style="fill:#276795; stroke:none;" d="M118 438L119 439L118 438M106 439L107 440L106 439M120 439L121 440L120 439M263 439L264 440L263 439M321.333 439.667L321.667 440.333L321.333 439.667M88.3333 440.667L88.6667 441.333L88.3333 440.667M105 440L106 441L105 440M121 440L122 441L121 440M138.333 440.667L138.667 441.333L138.333 440.667M305 440L306 441L305 440M122 441L123 442L122 441M248.333 441.667L248.667 442.333L248.333 441.667M264 441L265 442L264 441z"/>
<path style="fill:#23a5fe; stroke:none;" d="M104 442L105 443L104 442z"/>
<path style="fill:#276795; stroke:none;" d="M304 442L305 443L304 442z"/>
<path style="fill:#020202; stroke:none;" d="M424.019 442.786C414.496 445.951 419.626 460.093 428.891 456.254C436.485 453.107 432.065 440.112 424.019 442.786z"/>
<path style="fill:#276795; stroke:none;" d="M103 443L104 444L103 443M123 443L124 444L123 443M265 443L266 444L265 443z"/>
<path style="fill:#23a5fe; stroke:none;" d="M303 443L304 444L303 443z"/>
<path style="fill:#276795; stroke:none;" d="M320 443L321 444L320 443z"/>
<path style="fill:#23a5fe; stroke:none;" d="M103 444L104 445L103 444M123 444L124 445L123 444z"/>
<path style="fill:#276795; stroke:none;" d="M139 444L139 452L140 452L139 444M249.333 444.667L249.667 445.333L249.333 444.667z"/>
<path style="fill:#23a5fe; stroke:none;" d="M266 444L267 445L266 444z"/>
<path style="fill:#276795; stroke:none;" d="M87 445L87 452L88 452L87 445M302 445L303 446L302 445M102 446L102 450L103 450L102 446M124 446L124 450L125 450L124 446M301 446L302 447L301 446M319 446L320 447L319 446M250 447L251 448L250 447M300 447L301 448L300 447M26 448L26 452L27 452L26 448M299 448L300 449L299 448M318 448L319 449L318 448M251 449L252 450L251 449z"/>
<path style="fill:#23a5fe; stroke:none;" d="M271 449L272 450L271 449z"/>
<path style="fill:#276795; stroke:none;" d="M298 449L299 450L298 449M272 450L273 451L272 450M296 450L297 451L296 450z"/>
<path style="fill:#23a5fe; stroke:none;" d="M103 451L104 452L103 451z"/>
<path style="fill:#276795; stroke:none;" d="M274 451L275 452L274 451z"/>
<path style="fill:#23a5fe; stroke:none;" d="M294 451L295 452L294 451z"/>
<path style="fill:#276795; stroke:none;" d="M316 451L317 452L316 451M103 452L104 453L103 452M123 452L124 453L123 452M253 452L254 453L253 452M276 452L277 453L276 452z"/>
<path style="fill:#23a5fe; stroke:none;" d="M277 452L278 453L277 452z"/>
<path style="fill:#276795; stroke:none;" d="M292 452L293 453L292 452M279.667 453.333L280.333 453.667L279.667 453.333z"/>
<path style="fill:#23a5fe; stroke:none;" d="M281.667 453.333L282.333 453.667L281.667 453.333M287 453L288 454L287 453z"/>
<path style="fill:#276795; stroke:none;" d="M288.667 453.333L289.333 453.667L288.667 453.333M315 453L316 454L315 453M88.3333 454.667L88.6667 455.333L88.3333 454.667M104 454L105 455L104 454M122 454L123 455L122 454M138.333 454.667L138.667 455.333L138.333 454.667M314 454L315 455L314 454M27.3333 455.667L27.6667 456.333L27.3333 455.667M105 455L106 456L105 455M121 455L122 456L121 455M255 455L256 456L255 455M313 455L314 456L313 455M106 456L107 457L106 456M120 456L121 457L120 456M256 456L257 457L256 456M422 456L423 457L422 456M89.3333 457.667L89.6667 458.333L89.3333 457.667z"/>
<path style="fill:#23a5fe; stroke:none;" d="M108 457L109 458L108 457M118 457L119 458L118 457z"/>
<path style="fill:#276795; stroke:none;" d="M119 457L120 458L119 457M257 457L258 458L257 457M109.667 458.333L110.333 458.667L109.667 458.333z"/>
<path style="fill:#23a5fe; stroke:none;" d="M111 458L112 459L111 458M115 458L116 459L115 458z"/>
<path style="fill:#276795; stroke:none;" d="M116.667 458.333L117.333 458.667L116.667 458.333M137 458L138 459L137 458M258 458L259 459L258 458M259 459L260 460L259 459M309 459L310 460L309 459M28 460L29 461L28 460M90 460L91 461L90 460M136 460L137 461L136 460M260 460L261 461L260 460M308 460L309 461L308 460M262 461L263 462L262 461M307 461L308 462L307 461M263 462L264 463L263 462M29.3333 463.667L29.6667 464.333L29.3333 463.667M92 463L93 464L92 463M134 463L135 464L134 463M265 463L266 464L265 463M304 463L305 464L304 463M93 464L94 465L93 464M133 464L134 465L133 464M266 464L267 465L266 464M302 464L303 465L302 464M365 464L365 467L366 467L365 464M94 465L95 466L94 465M268 465L269 466L268 465M300 465L301 466L300 465M30 466L31 467L30 466M271 466L272 467L271 466M298 466L299 467L298 466M96 467L97 468L96 467M273.667 467.333L274.333 467.667L273.667 467.333M294.667 467.333L295.333 467.667L294.667 467.333M97 468L98 469L97 468M129 468L130 469L129 468M277 468L277 469L280 469L277 468M289 468L289 469L292 469L289 468M31 469L32 470L31 469M98 469L99 470L98 469M128 469L129 470L128 469M366.333 469.667L366.667 470.333L366.333 469.667M100 470L101 471L100 470M126 470L127 471L126 470M32 471L33 472L32 471M102 471L103 472L102 471M124 471L125 472L124 471M104 472L105 473L104 472M122 472L123 473L122 472M367.333 472.667L367.667 473.333L367.333 472.667M33 473L34 474L33 473M107.667 473.333L108.333 473.667L107.667 473.333M118.667 473.333L119.333 473.667L118.667 473.333M368.333 475.667L368.667 476.333L368.333 475.667M35 476L36 477L35 476M369 478L370 479L369 478M37 479L38 480L37 479M38 480L39 481L38 480M370 480L371 481L370 480M39 481L40 482L39 481M371 482L372 483L371 482M371 484L372 485L371 484M43 485L44 486L43 485M370 485L371 486L370 485M44 486L45 487L44 486M369 486L370 487L369 486M45 487L46 488L45 487M367 487L368 488L367 487M366 488L367 489L366 488M48 489L49 490L48 489M50 490L51 491L50 490M363 490L364 491L363 490M52 491L53 492L52 491M361 491L362 492L361 491M54 492L55 493L54 492M358.667 492.333L359.333 492.667L358.667 492.333M56.6667 493.333L57.3333 493.667L56.6667 493.333M356 493L357 494L356 493M59.6667 494.333L60.3333 494.667L59.6667 494.333M353 494L354 495L353 494M63.6667 495.333L64.3333 495.667L63.6667 495.333M348 495L348 496L351 496L348 495M68 496L68 497L73 497L68 496M339 496L339 497L345 497L339 496z"/>
</svg>
